<svg width="16" height="16" viewBox="0 0 16 16" fill="none" xmlns="http://www.w3.org/2000/svg">
<rect width="16" height="16" rx="8" fill="#ED643D"/>
<path fill-rule="evenodd" clip-rule="evenodd" d="M3.87495 11.8138H6.2187C6.30557 11.8143 6.39105 11.7919 6.46657 11.749C6.54209 11.706 6.605 11.644 6.64901 11.5691L9.67808 6.42691C9.72186 6.35126 9.74491 6.26541 9.74491 6.178C9.74491 6.0906 9.72186 6.00474 9.67808 5.9291L8.43964 3.74285C8.39636 3.6662 8.33349 3.60243 8.25747 3.55805C8.18145 3.51368 8.09501 3.4903 8.00698 3.4903C7.91896 3.4903 7.83251 3.51368 7.75649 3.55805C7.68048 3.60243 7.61761 3.6662 7.57433 3.74285L3.44183 11.0732C3.39926 11.1488 3.37723 11.2342 3.37795 11.321C3.37866 11.4078 3.40208 11.4928 3.44589 11.5677C3.4897 11.6426 3.55236 11.7048 3.62763 11.7479C3.70291 11.7911 3.78818 11.8138 3.87495 11.8138ZM10.281 8.58786L8.88883 11.0713C8.84606 11.1471 8.8239 11.2328 8.82456 11.3198C8.82522 11.4068 8.84868 11.4921 8.89259 11.5672C8.93651 11.6423 8.99935 11.7046 9.07485 11.7479C9.15035 11.7912 9.23587 11.8139 9.32289 11.8138H12.1213C12.2083 11.8137 12.2938 11.7907 12.3691 11.7473C12.4445 11.7038 12.5072 11.6414 12.5509 11.5662C12.5946 11.491 12.6179 11.4056 12.6183 11.3186C12.6188 11.2316 12.5964 11.146 12.5535 11.0704L11.1473 8.58786C11.1039 8.51124 11.0409 8.4475 10.9648 8.40316C10.8887 8.35881 10.8022 8.33545 10.7141 8.33545C10.6261 8.33545 10.5396 8.35881 10.4635 8.40316C10.3874 8.4475 10.3244 8.51124 10.281 8.58786Z" fill="white"/>
</svg>
