<svg width="16" height="16" viewBox="0 0 16 16" fill="none" xmlns="http://www.w3.org/2000/svg">
<rect width="16" height="16" rx="8" fill="#E9B878"/>
<path d="M11.2411 9.57123C11.1754 8.80998 10.3973 8.30092 10.3973 8.30092C10.3973 8.30092 11.3892 8.03186 11.4914 6.85623C11.5561 6.10623 11.0836 5.32342 9.89763 4.97467L10.3064 3.43061L9.33326 3.1728L8.92544 4.71311L8.11826 4.49936L8.52607 2.95905L7.55107 2.70123L7.14326 4.24155L5.57576 3.82623L5.31794 4.79842L6.27232 5.05061L5.02732 9.75404L4.07294 9.49998L3.79919 10.5312L5.36669 10.9465L4.95888 12.4897L5.93763 12.7531L6.34638 11.21L7.15357 11.4237L6.74107 12.9687L7.71888 13.2247L8.12763 11.6815L8.35357 11.7406C10.2586 12.2187 11.3536 10.8837 11.2411 9.57123ZM7.88576 5.47811C7.88576 5.47811 8.28138 5.5803 8.84951 5.73311C9.38857 5.87842 9.79919 6.35467 9.67263 6.89186C9.54607 7.42905 8.98451 7.77123 8.39482 7.62498C7.85388 7.48998 7.38794 7.35873 7.38794 7.35873L7.88576 5.47811ZM7.92982 10.5228C7.36732 10.3859 6.64076 10.1815 6.64076 10.1815L7.15638 8.22873C7.15638 8.22873 7.81263 8.41623 8.39669 8.55686C9.09513 8.72936 9.52169 9.18779 9.36794 9.80186C9.21419 10.4159 8.68826 10.7075 7.92982 10.5228Z" fill="white"/>
</svg>
