<svg width="16" height="16" viewBox="0 0 16 16" fill="none" xmlns="http://www.w3.org/2000/svg">
<g id="chain / optimism-2">
<rect width="16" height="16" rx="8" fill="#ED643D"/>
<path id="icon" fill-rule="evenodd" clip-rule="evenodd" d="M4.81025 9.61792C5.08376 9.81945 5.43501 9.92022 5.86399 9.92022C6.38223 9.92022 6.79682 9.80218 7.10488 9.56034C7.41582 9.31561 7.63175 8.94421 7.75843 8.45189C7.83616 8.14958 7.8995 7.83576 7.95421 7.51619C7.97148 7.40102 7.98012 7.30601 7.98012 7.23116C7.98012 6.98068 7.91678 6.76474 7.7901 6.58336C7.66342 6.3991 7.49067 6.26091 7.27186 6.17165C7.05305 6.07664 6.80257 6.03058 6.52618 6.03058C5.50699 6.03058 4.87359 6.52578 4.62887 7.51619C4.54249 7.88183 4.47627 8.19277 4.43021 8.45189C4.41293 8.56705 4.4043 8.66206 4.4043 8.74268C4.4043 9.11984 4.53961 9.4135 4.81025 9.61792ZM6.4542 8.96437C6.31313 9.08241 6.14326 9.14287 5.94173 9.14287C5.59624 9.14287 5.42061 8.97876 5.42349 8.64479C5.42349 8.56417 5.43213 8.48932 5.44653 8.41734C5.51274 8.06609 5.57608 7.77242 5.6423 7.53058C5.70276 7.28298 5.80353 7.1016 5.94461 6.98356C6.08856 6.86551 6.26131 6.80505 6.46284 6.80505C6.80545 6.80505 6.97532 6.96916 6.97532 7.29738C6.97532 7.37799 6.96668 7.45573 6.95229 7.53058C6.9091 7.78394 6.84576 8.07761 6.76227 8.41734C6.70181 8.66494 6.59816 8.84632 6.4542 8.96437ZM8.13825 9.83067C8.16128 9.85658 8.19007 9.8681 8.23038 9.8681H8.96455C9.00197 9.8681 9.03652 9.85658 9.06819 9.83067C9.10274 9.80476 9.12002 9.77309 9.12865 9.73278L9.37626 8.54948H10.1047C10.5768 8.54948 10.9482 8.45159 11.2189 8.25293C11.4953 8.05427 11.6766 7.74909 11.7659 7.3345C11.786 7.23661 11.7976 7.1416 11.7976 7.05235C11.7976 6.73853 11.6738 6.49957 11.429 6.33258C11.1872 6.16847 10.8676 6.08498 10.4674 6.08498H9.03076C8.99334 6.08498 8.95879 6.0965 8.92712 6.12241C8.89257 6.14832 8.87241 6.17999 8.86666 6.2203L8.12097 9.73278C8.11522 9.77021 8.12097 9.80188 8.13825 9.83067ZM10.5365 7.67999C10.4242 7.76349 10.2947 7.80379 10.1421 7.80379H9.52309L9.7275 6.83642H10.3753C10.5221 6.83642 10.6287 6.86521 10.6891 6.92279C10.7496 6.9775 10.7812 7.05811 10.7812 7.16176C10.7812 7.20782 10.7755 7.26253 10.764 7.32299C10.7265 7.47846 10.6517 7.5965 10.5365 7.67999Z" fill="white"/>
</g>
</svg>
