<svg width="16" height="16" viewBox="0 0 16 16" fill="none" xmlns="http://www.w3.org/2000/svg">
<rect width="16" height="16" rx="8" fill="#0F1B54"/>
<path fill-rule="evenodd" clip-rule="evenodd" d="M10.3216 4.62699C10.4004 4.63057 10.5579 4.64847 10.6707 4.66636C10.7835 4.68426 10.9536 4.72542 11.0467 4.75585C11.1398 4.78627 11.2974 4.8507 11.3958 4.89724C11.4943 4.94556 11.668 5.05115 11.7808 5.13348C11.8936 5.2158 12.0583 5.3554 12.1478 5.44489C12.2373 5.53437 12.3627 5.68292 12.4289 5.77598C12.4951 5.86905 12.5865 6.01938 12.6312 6.10708C12.676 6.19478 12.7118 6.27531 12.7118 6.28605C12.7118 6.29679 12.6581 6.32363 12.5918 6.34869C12.5238 6.37196 12.4092 6.43102 12.3358 6.47934C12.2624 6.52766 12.1371 6.62252 12.0583 6.68874C11.9795 6.75495 11.8506 6.87666 11.7718 6.95898C11.693 7.04131 11.5265 7.2346 11.4048 7.38851C11.2813 7.54243 11.0592 7.83952 10.9106 8.05071C10.762 8.26189 10.5454 8.56972 10.4308 8.73795C10.3162 8.90619 10.1515 9.13527 10.0638 9.24802C9.97606 9.36077 9.81313 9.55406 9.70213 9.67755C9.58933 9.79925 9.4085 9.98001 9.30108 10.0767C9.19366 10.1751 9.01462 10.3201 8.90719 10.4024C8.79977 10.4829 8.6261 10.601 8.52226 10.6619C8.41842 10.7245 8.23759 10.8212 8.11942 10.8784C8.00126 10.9357 7.81147 11.0145 7.69868 11.0521C7.58589 11.0914 7.39968 11.1433 7.28689 11.1684C7.1741 11.1934 6.99327 11.2239 6.88405 11.2364C6.7641 11.2489 6.58148 11.2525 6.41855 11.2471C6.26995 11.24 6.08196 11.2239 5.99781 11.2095C5.91366 11.197 5.76148 11.163 5.65763 11.1362C5.55379 11.1093 5.41056 11.0628 5.33894 11.0359C5.26912 11.0073 5.11873 10.9393 5.00951 10.8838C4.89851 10.8283 4.73916 10.7389 4.65501 10.6834C4.57087 10.6297 4.44196 10.5366 4.36855 10.4758C4.29514 10.4167 4.15549 10.2914 4.05702 10.1966C3.96034 10.1035 3.81711 9.94601 3.73833 9.84758C3.65956 9.74914 3.53602 9.58091 3.4644 9.47174C3.391 9.36256 3.28894 9.19075 3.23344 9.08695C3.17973 8.98315 3.10991 8.83639 3.08126 8.75943C3.05082 8.68426 3.02576 8.61446 3.02576 8.60373C3.02576 8.59299 3.13318 8.6091 3.27283 8.64131C3.40711 8.66995 3.58615 8.70753 3.6703 8.72364C3.77235 8.74332 3.92095 8.75227 4.12685 8.75227C4.38466 8.75227 4.46523 8.74511 4.65501 8.70574C4.77855 8.68068 4.95222 8.63415 5.03995 8.60373C5.12768 8.57151 5.26196 8.51424 5.33536 8.47666C5.40877 8.43728 5.54305 8.35496 5.63078 8.29053C5.71851 8.22789 5.86353 8.10798 5.95126 8.02744C6.03899 7.94511 6.18759 7.7912 6.28069 7.68203C6.37379 7.57285 6.65488 7.21133 6.90733 6.87666C7.15798 6.54198 7.43907 6.17509 7.53038 6.06234C7.6199 5.94959 7.78999 5.76346 7.90816 5.64891C8.02453 5.53616 8.18388 5.39298 8.26265 5.33392C8.34143 5.27486 8.47571 5.18001 8.56344 5.12453C8.64938 5.06905 8.78545 4.9903 8.86781 4.95093C8.94837 4.90976 9.08265 4.8507 9.1668 4.8167C9.25095 4.78448 9.39955 4.73795 9.49802 4.71468C9.5965 4.68963 9.74152 4.66099 9.82029 4.65025C9.89907 4.63952 10.0119 4.62878 10.0709 4.6252C10.13 4.62341 10.2428 4.62341 10.3216 4.62699ZM5.27986 4.77375C5.29597 4.77196 5.31746 4.78269 5.32999 4.79522C5.34073 4.80775 5.3837 4.92587 5.42309 5.05473C5.46427 5.18538 5.50903 5.31603 5.52335 5.34645C5.53768 5.37509 5.57169 5.41625 5.60034 5.43594C5.6272 5.45741 5.72925 5.49858 5.82772 5.52721C5.92619 5.55764 6.04973 5.5988 6.10165 5.6167C6.1858 5.64712 6.19475 5.65607 6.19117 5.69903C6.1858 5.74377 6.17148 5.75451 6.05152 5.79388C5.97811 5.81894 5.85279 5.85831 5.77401 5.88158C5.66658 5.91379 5.61466 5.94064 5.56632 5.98896C5.51261 6.04265 5.48934 6.09276 5.42667 6.295C5.3837 6.42744 5.33894 6.55451 5.32462 6.57598C5.3103 6.59925 5.28344 6.61715 5.26375 6.61715C5.24405 6.61715 5.22078 6.60283 5.21362 6.58493C5.20466 6.56883 5.16349 6.43818 5.11873 6.295C5.05427 6.0856 5.02921 6.02475 4.98266 5.97822C4.93431 5.9299 4.87344 5.90305 4.65322 5.83325C4.48672 5.78135 4.37392 5.73661 4.36139 5.71871C4.34886 5.69724 4.34707 5.67755 4.3596 5.65786C4.37034 5.63997 4.49209 5.59164 4.65501 5.54153C4.88239 5.46994 4.94327 5.4431 4.99161 5.39656C5.03995 5.34824 5.06501 5.28918 5.13305 5.078C5.17781 4.93482 5.22257 4.80775 5.23152 4.79522C5.24226 4.78448 5.26375 4.77375 5.27986 4.77375ZM11.1362 9.95138C11.2705 9.95496 11.3045 9.96391 11.4281 10.023C11.5391 10.0767 11.582 10.1089 11.6465 10.1912C11.6913 10.2485 11.745 10.3397 11.7665 10.3934C11.7933 10.465 11.804 10.5312 11.804 10.635C11.804 10.7424 11.7933 10.8051 11.7611 10.8856C11.7378 10.9447 11.6913 11.0288 11.6554 11.0735C11.6196 11.1183 11.5498 11.1809 11.4979 11.2113C11.446 11.2435 11.3618 11.2829 11.3117 11.3008C11.2437 11.3205 11.1756 11.3277 11.0736 11.3223C10.9554 11.3151 10.9089 11.3044 10.8068 11.2525C10.7334 11.2149 10.6528 11.1559 10.6099 11.1093C10.5687 11.0646 10.5185 10.9894 10.4971 10.9429C10.4738 10.8963 10.4469 10.8158 10.4362 10.7639C10.4237 10.712 10.4201 10.6243 10.4272 10.5635C10.4344 10.5044 10.4595 10.4113 10.4845 10.3576C10.5096 10.304 10.5561 10.227 10.5866 10.1894C10.6188 10.15 10.6797 10.0946 10.7244 10.0659C10.7692 10.0355 10.8462 9.99612 10.8945 9.97822C10.959 9.95496 11.0252 9.9478 11.1362 9.95138Z" fill="white"/>
<path d="M9.48914 4.88094C9.56255 4.86125 9.68788 4.83262 9.76665 4.81651C9.87229 4.79682 9.99941 4.79324 10.2501 4.79682C10.5347 4.80398 10.6207 4.81114 10.7782 4.84872C10.8821 4.87378 11.0181 4.91315 11.0826 4.93821C11.147 4.96147 11.2634 5.01338 11.3422 5.05275C11.421 5.09391 11.5409 5.16371 11.6108 5.21024C11.6806 5.25678 11.8041 5.35342 11.8865 5.42322C11.9688 5.49302 12.0906 5.61472 12.1568 5.69347C12.2231 5.77221 12.3054 5.88139 12.343 5.93508C12.3788 5.98877 12.4075 6.04067 12.4075 6.05141C12.4075 6.06215 12.377 6.06394 12.3233 6.05499C12.275 6.04783 12.1443 6.02814 12.0315 6.01382C11.9187 5.99951 11.6895 5.98698 11.5212 5.98698C11.3207 5.98519 11.156 5.99593 11.0378 6.01561C10.9394 6.03172 10.7979 6.06394 10.7245 6.08899C10.6511 6.11405 10.5222 6.16953 10.4381 6.21248C10.3539 6.25544 10.2178 6.3485 10.1337 6.41651C10.0495 6.48631 9.92958 6.60085 9.86692 6.67244C9.80604 6.74403 9.69862 6.88004 9.63238 6.97311C9.56613 7.06617 9.39962 7.32926 9.26535 7.55476C9.12928 7.78027 8.98604 8.01472 8.94666 8.07378C8.90727 8.13284 8.80521 8.27423 8.72286 8.38698C8.63871 8.49973 8.5098 8.66618 8.43639 8.75387C8.3612 8.84157 8.19111 9.02412 8.05862 9.15656C7.92434 9.28899 7.74709 9.45365 7.66294 9.51987C7.5788 9.58788 7.42661 9.69884 7.32277 9.76685C7.21893 9.83665 7.05779 9.9315 6.96469 9.97982C6.87159 10.0264 6.73373 10.0908 6.66032 10.1194C6.58692 10.1498 6.45264 10.1946 6.36491 10.2196C6.27718 10.2447 6.13037 10.2787 6.04264 10.293C5.94596 10.3109 5.77766 10.3217 5.6219 10.3217C5.46613 10.3217 5.29784 10.3091 5.20115 10.293C5.11343 10.2769 4.97198 10.2447 4.88784 10.2196C4.80369 10.1928 4.66225 10.1391 4.57452 10.0979C4.48679 10.0568 4.34535 9.97803 4.2612 9.92255C4.17705 9.86707 4.04814 9.77043 3.97474 9.70779C3.90133 9.64336 3.776 9.51629 3.69902 9.42322C3.62024 9.33016 3.51461 9.19056 3.46268 9.11181C3.41076 9.03307 3.35526 8.93821 3.33736 8.90242C3.31766 8.86483 3.30692 8.83083 3.31229 8.82725C3.31766 8.82367 3.39465 8.83441 3.48238 8.85231C3.57011 8.8702 3.72408 8.89526 3.82255 8.90779C3.93356 8.92031 4.08753 8.92568 4.22539 8.91852C4.34893 8.91316 4.51723 8.89526 4.60137 8.87915C4.68552 8.86483 4.83054 8.83083 4.92364 8.80756C5.01674 8.78251 5.15819 8.73418 5.23696 8.69839C5.31574 8.66439 5.43928 8.60354 5.51268 8.56058C5.5843 8.51942 5.71321 8.43351 5.79915 8.36908C5.88329 8.30644 6.03906 8.16864 6.1429 8.06483C6.24674 7.96103 6.39535 7.79996 6.47233 7.70689C6.54932 7.61383 6.78207 7.31136 6.98976 7.03575C7.19565 6.76013 7.44631 6.43083 7.54478 6.30197C7.64504 6.1749 7.80976 5.98161 7.9136 5.87423C8.01744 5.76684 8.175 5.6183 8.26273 5.54492C8.35045 5.47154 8.4919 5.36416 8.57604 5.30868C8.66019 5.25141 8.79626 5.16908 8.88041 5.12434C8.96456 5.0796 9.10421 5.01517 9.19373 4.98116C9.28325 4.94537 9.41574 4.90062 9.48914 4.88094Z" fill="#0F1B54"/>
</svg>
