<svg width="16" height="16" viewBox="0 0 16 16" fill="none" xmlns="http://www.w3.org/2000/svg">
<rect width="16" height="16" rx="8" fill="#84A7FA"/>
<path fill-rule="evenodd" clip-rule="evenodd" d="M5.08443 11.162C5.69226 12.216 6.78446 12.8474 8.00011 12.8474C9.21577 12.8474 10.308 12.216 10.9158 11.162C11.5236 10.108 11.5236 8.84989 10.9158 7.79591L8.35152 3.35207C8.19481 3.08145 7.80542 3.08145 7.64871 3.35207L5.08443 7.79591C4.47186 8.84989 4.47186 10.108 5.08443 11.162ZM7.27832 5.46479L7.82441 4.51525C7.90039 4.38232 8.09984 4.38232 8.17581 4.51525L10.2795 8.16148C10.6641 8.8309 10.7401 9.60477 10.4979 10.3169C10.4742 10.203 10.4362 10.0843 10.3887 9.9656C10.099 9.22971 9.43896 8.66473 8.43224 8.28492C7.73894 8.02379 7.29731 7.63448 7.12161 7.13598C6.89367 6.49029 7.13586 5.78763 7.27832 5.46479ZM6.34283 7.079L5.72075 8.16148C5.24589 8.98757 5.24589 9.97034 5.72075 10.7964C6.19562 11.6225 7.05038 12.1116 8.00011 12.1116C8.63169 12.1116 9.22052 11.8932 9.68589 11.5086C9.74762 11.3567 9.93282 10.8012 9.70014 10.2267C9.48645 9.69498 8.97359 9.27243 8.17107 8.96858C7.26882 8.62675 6.67999 8.09026 6.42356 7.37811C6.39032 7.27841 6.36657 7.17871 6.34283 7.079Z" fill="white"/>
</svg>
